<svg width="400" height="200" xmlns="http://www.w3.org/2000/svg">
  <defs>
    <radialGradient id="spaceGrad" cx="50%" cy="30%" r="50%">
      <stop offset="0%" style="stop-color:#000033;stop-opacity:1" />
      <stop offset="100%" style="stop-color:#000000;stop-opacity:1" />
    </radialGradient>
  </defs>
  
  <!-- Space background -->
  <rect width="400" height="200" fill="url(#spaceGrad)"/>
  
  <!-- Stars -->
  <circle cx="50" cy="30" r="1" fill="white"/>
  <circle cx="150" cy="20" r="1.5" fill="white"/>
  <circle cx="300" cy="40" r="1" fill="white"/>
  <circle cx="350" cy="25" r="1" fill="white"/>
  <circle cx="100" cy="60" r="1" fill="white"/>
  <circle cx="250" cy="50" r="1.5" fill="white"/>
  <circle cx="380" cy="70" r="1" fill="white"/>
  
  <!-- Earth (small, in corner) -->
  <circle cx="350" cy="150" r="25" fill="#4169E1"/>
  <path d="M335 140 Q345 145 355 140 Q365 150 355 160 Q345 155 335 160" fill="#228B22"/>
  
  <!-- Rocket ship (center) -->
  <polygon points="200,80 210,140 190,140" fill="#C0C0C0"/>
  <polygon points="200,80 205,85 195,85" fill="#FF4500"/>
  <circle cx="200" cy="120" r="8" fill="#4169E1"/>
  <circle cx="200" cy="120" r="5" fill="#87CEEB"/>
  
  <!-- Rocket flames -->
  <polygon points="190,140 200,160 210,140" fill="#FF4500"/>
  <polygon points="195,140 200,155 205,140" fill="#FFD700"/>
  
  <!-- Planets in distance -->
  <circle cx="80" cy="100" r="15" fill="#CD853F"/>
  <ellipse cx="80" cy="95" rx="20" ry="3" fill="#8B4513" opacity="0.5"/>
  
  <circle cx="320" cy="120" r="12" fill="#FF6347"/>
  
  <!-- Comet -->
  <circle cx="120" cy="80" r="3" fill="#FFFACD"/>
  <path d="M120 80 L100 70 L110 75 L100 70 L110 85 L100 70" stroke="#FFFACD" stroke-width="1" fill="none"/>
</svg>
