<svg width="400" height="200" xmlns="http://www.w3.org/2000/svg">
  <defs>
    <linearGradient id="fieldGrad" x1="0%" y1="0%" x2="0%" y2="100%">
      <stop offset="0%" style="stop-color:#87CEEB;stop-opacity:1" />
      <stop offset="60%" style="stop-color:#98FB98;stop-opacity:1" />
      <stop offset="100%" style="stop-color:#228B22;stop-opacity:1" />
    </linearGradient>
  </defs>
  
  <!-- Field background -->
  <rect width="400" height="200" fill="url(#fieldGrad)"/>
  
  <!-- Stadium stands -->
  <rect x="0" y="60" width="50" height="60" fill="#708090"/>
  <rect x="350" y="60" width="50" height="60" fill="#708090"/>
  
  <!-- Field lines -->
  <rect x="50" y="120" width="300" height="80" fill="#228B22"/>
  <rect x="195" y="120" width="10" height="80" fill="white"/>
  <circle cx="200" cy="160" r="40" stroke="white" stroke-width="3" fill="none"/>
  <circle cx="200" cy="160" r="3" fill="white"/>
  
  <!-- Goal posts -->
  <rect x="45" y="140" width="5" height="40" fill="white"/>
  <rect x="350" y="140" width="5" height="40" fill="white"/>
  <rect x="40" y="140" width="15" height="5" fill="white"/>
  <rect x="345" y="140" width="15" height="5" fill="white"/>
  
  <!-- Soccer ball -->
  <circle cx="200" cy="180" r="8" fill="white" stroke="black" stroke-width="1"/>
  <path d="M192 180 L200 172 L208 180 L200 188 Z" fill="black"/>
  <path d="M200 172 L196 176 L204 176 Z" fill="black"/>
  <path d="M192 180 L196 184 L196 176" fill="black"/>
  <path d="M208 180 L204 184 L204 176" fill="black"/>
  
  <!-- Player figure -->
  <ellipse cx="180" cy="170" rx="6" ry="12" fill="#FF6347"/>
  <circle cx="180" cy="155" r="5" fill="#FDBCB4"/>
  <rect x="177" y="175" width="2" height="15" fill="#000080"/>
  <rect x="181" y="175" width="2" height="15" fill="#000080"/>
  <ellipse cx="180" cy="192" rx="4" ry="2" fill="black"/>
  <ellipse cx="180" cy="192" rx="4" ry="2" fill="white"/>
  
  <!-- Crowd (simplified) -->
  <rect x="5" y="80" width="40" height="30" fill="#4169E1" opacity="0.7"/>
  <rect x="355" y="80" width="40" height="30" fill="#DC143C" opacity="0.7"/>
  
  <!-- Stadium lights -->
  <rect x="20" y="50" width="4" height="15" fill="#D3D3D3"/>
  <circle cx="22" cy="50" r="3" fill="#FFFF00"/>
  <rect x="375" y="50" width="4" height="15" fill="#D3D3D3"/>
  <circle cx="377" cy="50" r="3" fill="#FFFF00"/>
  
  <!-- Action lines (movement) -->
  <path d="M160 175 Q170 165 180 170" stroke="#FFD700" stroke-width="2" fill="none"/>
  <path d="M165 180 Q175 170 185 175" stroke="#FFD700" stroke-width="1" fill="none"/>
</svg>
